<svg width="54" height="17" viewBox="0 0 54 17" fill="none" xmlns="http://www.w3.org/2000/svg">
<path d="M12.54 5.78C12.54 7.22 12.04 8.34 11.04 9.14C10.0533 9.92667 8.74667 10.32 7.12 10.32H4.12C3.97333 10.32 3.9 10.3933 3.9 10.54V15.54C3.9 15.8467 3.72667 16 3.38 16H0.82C0.66 16 0.546667 15.9667 0.48 15.9C0.426667 15.8333 0.4 15.7333 0.4 15.6V1.54C0.4 1.28667 0.506667 1.16 0.72 1.16H6.72C7.82667 1.16 8.81333 1.33333 9.68 1.68C10.56 2.01333 11.2533 2.52667 11.76 3.22C12.28 3.91333 12.54 4.76667 12.54 5.78ZM8.94 5.72C8.94 5.04 8.72 4.52667 8.28 4.18C7.84 3.83333 7.24667 3.66 6.5 3.66H4.28C4.14667 3.66 4.04667 3.68667 3.98 3.74C3.92667 3.79333 3.9 3.88667 3.9 4.02V7.44C3.9 7.57333 3.92 7.67333 3.96 7.74C4 7.79333 4.07333 7.82 4.18 7.82H6.64C7.34667 7.82 7.90667 7.63333 8.32 7.26C8.73333 6.88667 8.94 6.37333 8.94 5.72ZM17.8769 1.16C18.0902 1.16 18.1969 1.28 18.1969 1.52V15.52C18.1969 15.6933 18.1569 15.82 18.0769 15.9C17.9969 15.9667 17.8569 16 17.6569 16H15.1369C14.9769 16 14.8635 15.9667 14.7969 15.9C14.7302 15.8333 14.6969 15.7267 14.6969 15.58V1.54C14.6969 1.28667 14.8035 1.16 15.0169 1.16H17.8769ZM33.1255 1.16C33.2988 1.16 33.3855 1.26 33.3855 1.46V15.68C33.3855 15.7733 33.3455 15.8533 33.2655 15.92C33.1988 15.9733 33.1121 16 33.0055 16H30.9855C30.8655 16 30.7721 15.9867 30.7055 15.96C30.6388 15.9333 30.5655 15.8667 30.4855 15.76L24.1055 6.8C24.0521 6.73333 23.9988 6.70667 23.9455 6.72C23.9055 6.73333 23.8855 6.77333 23.8855 6.84V15.64V15.7C23.8855 15.8067 23.8521 15.8867 23.7855 15.94C23.7321 15.98 23.6321 16 23.4855 16H21.4055C21.1388 16 21.0055 15.8867 21.0055 15.66V1.54C21.0055 1.28667 21.1255 1.16 21.3655 1.16H23.7855C23.9455 1.16 24.0588 1.18 24.1255 1.22C24.1921 1.24667 24.2721 1.32667 24.3655 1.46L30.2455 9.84C30.3255 9.94667 30.3921 10 30.4455 10C30.5121 10 30.5455 9.92667 30.5455 9.78V1.52C30.5455 1.28 30.6655 1.16 30.9055 1.16H33.1255ZM42.3413 16.2C40.9946 16.2 39.8146 15.8867 38.8013 15.26C37.8013 14.6333 37.0279 13.7533 36.4813 12.62C35.9346 11.4733 35.6613 10.1467 35.6613 8.64C35.6613 7.09333 35.9479 5.74 36.5213 4.58C37.0946 3.42 37.9013 2.52667 38.9413 1.9C39.9813 1.27333 41.1813 0.959999 42.5413 0.959999C43.5813 0.959999 44.5279 1.16 45.3813 1.56C46.2479 1.96 46.9479 2.48667 47.4813 3.14C48.0279 3.78 48.3679 4.46667 48.5013 5.2C48.5279 5.28 48.5413 5.38 48.5413 5.5C48.5413 5.64667 48.4546 5.72667 48.2813 5.74L45.6413 6.14C45.5346 6.14 45.4613 6.12 45.4213 6.08C45.3813 6.02667 45.3479 5.94 45.3213 5.82C45.1879 5.12667 44.8746 4.55333 44.3813 4.1C43.8879 3.64667 43.2479 3.42 42.4613 3.42C41.4346 3.42 40.6546 3.82667 40.1213 4.64C39.5879 5.45333 39.3213 6.74667 39.3213 8.52C39.3213 10.3733 39.6013 11.7067 40.1613 12.52C40.7213 13.3333 41.5279 13.74 42.5813 13.74C43.3813 13.74 44.0213 13.5267 44.5013 13.1C44.9813 12.66 45.2946 12.1133 45.4413 11.46L45.4813 10.88C45.4946 10.8533 45.5013 10.8133 45.5013 10.76C45.5013 10.64 45.4279 10.58 45.2813 10.58H42.8613C42.7546 10.58 42.6746 10.5533 42.6213 10.5C42.5679 10.4467 42.5413 10.36 42.5413 10.24V8.74C42.5413 8.55333 42.6479 8.46 42.8613 8.46L48.2013 8.48C48.3879 8.48 48.5279 8.52667 48.6213 8.62C48.7279 8.7 48.7813 8.81333 48.7813 8.96V15.7C48.7813 15.7933 48.7546 15.8667 48.7013 15.92C48.6479 15.9733 48.5746 16 48.4813 16H47.8413C47.6146 16 47.4413 15.8933 47.3213 15.68L46.7413 14.24C46.7013 14.1467 46.6346 14.1533 46.5412 14.26C46.0746 14.8333 45.5146 15.3 44.8613 15.66C44.2213 16.02 43.3813 16.2 42.3413 16.2Z" fill="#15202A"/>
<path d="M53.9803 15.52C53.9803 15.6933 53.9336 15.82 53.8403 15.9C53.7603 15.9667 53.6203 16 53.4203 16H51.0603C50.767 16 50.6203 15.86 50.6203 15.58V13.04C50.6203 12.92 50.647 12.8333 50.7003 12.78C50.767 12.7133 50.847 12.68 50.9403 12.68H53.6803C53.8803 12.68 53.9803 12.7933 53.9803 13.02V15.52Z" fill="#4C7BF3"/>
</svg>
